<?xml version="1.0" standalone="no"?>
<!DOCTYPE svg PUBLIC "-//W3C//DTD SVG 20010904//EN"
 "http://www.w3.org/TR/2001/REC-SVG-20010904/DTD/svg10.dtd">
<svg version="1.0" xmlns="http://www.w3.org/2000/svg"
 width="560.000000pt" height="560.000000pt" viewBox="0 0 560.000000 560.000000"
 preserveAspectRatio="xMidYMid meet">
<metadata>
Created by potrace 1.14, written by Peter Selinger 2001-2017
</metadata>
<g transform="translate(0.000000,560.000000) scale(0.100000,-0.100000)"
fill="#000000" stroke="none">
<path d="M0 2800 l0 -2800 2800 0 2800 0 0 2800 0 2800 -2800 0 -2800 0 0
-2800z m2856 1545 c32 -16 62 -40 79 -65 60 -87 58 -49 63 -960 4 -832 4 -835
-16 -853 -19 -18 -35 -18 -241 -12 -195 7 -222 10 -237 26 -15 17 -15 37 0
276 25 395 31 381 -77 158 -51 -104 -109 -208 -128 -229 -86 -99 -221 -99
-275 0 -12 22 -48 122 -80 224 l-59 185 -6 -130 c-4 -72 -7 -201 -8 -287 0
-86 -6 -169 -11 -183 -10 -27 -12 -27 -88 -24 -42 2 -83 0 -89 -4 -17 -11
-243 -22 -276 -13 -15 3 -31 15 -37 26 -8 14 -1 215 24 727 20 390 38 773 41
853 8 206 14 268 32 285 10 11 41 16 111 17 53 1 113 3 132 4 53 3 111 -7 103
-19 -4 -6 3 -8 18 -4 16 4 35 -1 54 -14 l30 -21 -90 8 c-95 8 -104 8 -257 2
-60 -2 -99 -7 -102 -14 -5 -14 165 -25 222 -15 20 4 87 3 148 -2 l112 -10 20
-36 c11 -20 66 -196 122 -391 56 -195 103 -356 104 -358 2 -1 76 172 166 385
89 214 165 391 169 395 3 3 71 10 150 15 94 5 146 12 148 20 3 8 -24 10 -99 6
-67 -3 -98 -1 -89 5 10 8 11 11 1 17 -8 5 -18 1 -25 -8 -15 -20 -77 -24 -69
-4 2 6 19 22 37 35 30 22 38 23 127 18 72 -5 107 -12 146 -31z m1179 -820
c168 -32 276 -133 305 -287 6 -28 10 -115 10 -194 0 -116 -3 -145 -16 -158
-13 -13 -46 -16 -203 -16 -139 0 -191 3 -199 13 -5 6 -13 64 -17 127 -9 135
-15 157 -50 166 -58 14 -109 -36 -135 -135 -17 -64 1 -128 53 -188 25 -27 102
-86 187 -141 183 -120 262 -197 321 -316 40 -82 43 -92 47 -194 4 -96 2 -115
-23 -187 -86 -256 -245 -372 -535 -391 -172 -12 -323 22 -523 114 -112 52
-147 77 -147 105 1 12 33 85 73 162 57 111 77 141 95 143 13 2 56 -15 99 -38
107 -57 201 -96 268 -110 49 -10 64 -9 100 5 57 21 79 56 78 120 -1 96 -37
135 -237 260 -253 157 -330 238 -362 381 -59 269 74 577 302 696 134 71 338
96 509 63z"/>
<path d="M2750 4340 c8 -5 20 -10 25 -10 6 0 3 5 -5 10 -8 5 -19 10 -25 10 -5
0 -3 -5 5 -10z"/>
<path d="M1970 3980 c0 -5 5 -10 10 -10 6 0 10 5 10 10 0 6 -4 10 -10 10 -5 0
-10 -4 -10 -10z"/>
<path d="M2750 3940 c0 -5 7 -10 16 -10 8 0 12 5 9 10 -3 6 -10 10 -16 10 -5
0 -9 -4 -9 -10z"/>
<path d="M2676 3904 c-4 -11 -1 -14 11 -12 9 2 18 9 21 16 6 18 -25 15 -32 -4z"/>
<path d="M2750 3799 c0 -5 5 -7 10 -4 6 3 10 8 10 11 0 2 -4 4 -10 4 -5 0 -10
-5 -10 -11z"/>
<path d="M2680 3460 c0 -5 5 -10 11 -10 5 0 7 5 4 10 -3 6 -8 10 -11 10 -2 0
-4 -4 -4 -10z"/>
<path d="M2190 3420 c0 -5 7 -10 15 -10 8 0 15 5 15 10 0 6 -7 10 -15 10 -8 0
-15 -4 -15 -10z"/>
<path d="M2610 3359 c0 -5 5 -7 10 -4 6 3 10 8 10 11 0 2 -4 4 -10 4 -5 0 -10
-5 -10 -11z"/>
<path d="M1462 3330 c0 -14 2 -19 5 -12 2 6 2 18 0 25 -3 6 -5 1 -5 -13z"/>
<path d="M2345 3320 c-8 -12 20 -24 35 -15 5 3 10 10 10 16 0 12 -37 12 -45
-1z"/>
<path d="M1461 3284 c0 -11 3 -14 6 -6 3 7 2 16 -1 19 -3 4 -6 -2 -5 -13z"/>
<path d="M2216 3291 c-18 -7 -18 -8 -2 -14 27 -11 36 -8 36 8 0 16 -5 17 -34
6z"/>
<path d="M1453 3160 c0 -25 2 -35 4 -22 2 12 2 32 0 45 -2 12 -4 2 -4 -23z"/>
<path d="M2198 3148 c9 -9 15 -9 24 0 9 9 7 12 -12 12 -19 0 -21 -3 -12 -12z"/>
<path d="M2285 3141 c-10 -18 17 -23 33 -7 15 15 15 16 -5 16 -12 0 -24 -4
-28 -9z"/>
<path d="M1447 3084 c-4 -4 -7 -29 -7 -54 0 -30 -6 -52 -15 -60 -20 -16 -19
-83 1 -216 12 -78 14 -117 7 -154 -6 -27 -7 -66 -4 -87 7 -36 8 -37 19 -16 8
15 10 64 6 175 -4 94 -2 201 5 277 11 113 8 154 -12 135z"/>
<path d="M2257 3084 c-13 -13 -7 -24 14 -24 11 0 19 5 17 12 -5 14 -22 21 -31
12z"/>
<path d="M2336 3068 c-14 -20 -14 -24 -1 -37 17 -18 24 -12 31 22 6 34 -11 43
-30 15z"/>
<path d="M2685 2879 c-10 -15 3 -25 16 -12 7 7 7 13 1 17 -6 3 -14 1 -17 -5z"/>
<path d="M2165 2791 c-2 -5 7 -13 21 -20 29 -13 44 -14 44 -3 0 11 -59 32 -65
23z"/>
<path d="M2265 2760 c3 -5 10 -10 16 -10 5 0 9 5 9 10 0 6 -7 10 -16 10 -8 0
-12 -4 -9 -10z"/>
<path d="M1820 2750 c0 -5 7 -10 15 -10 8 0 15 5 15 10 0 6 -7 10 -15 10 -8 0
-15 -4 -15 -10z"/>
<path d="M1705 2720 c4 -6 11 -8 16 -5 14 9 11 15 -7 15 -8 0 -12 -5 -9 -10z"/>
<path d="M1650 2640 c0 -5 7 -10 16 -10 8 0 12 5 9 10 -3 6 -10 10 -16 10 -5
0 -9 -4 -9 -10z"/>
<path d="M1830 2560 c0 -11 5 -20 10 -20 6 0 10 9 10 20 0 11 -4 20 -10 20 -5
0 -10 -9 -10 -20z"/>
<path d="M3860 2530 c0 -5 5 -10 10 -10 6 0 10 5 10 10 0 6 -4 10 -10 10 -5 0
-10 -4 -10 -10z"/>
<path d="M3950 2532 c0 -17 38 -44 45 -33 3 6 1 11 -4 11 -6 0 -11 7 -11 15 0
8 -7 15 -15 15 -8 0 -15 -4 -15 -8z"/>
<path d="M4160 2265 c0 -8 7 -15 15 -15 8 0 15 7 15 15 0 8 -7 15 -15 15 -8 0
-15 -7 -15 -15z"/>
<path d="M4082 2188 c5 -15 28 -18 29 -3 0 6 -7 12 -17 13 -10 3 -15 -1 -12
-10z"/>
<path d="M4200 2180 c0 -5 4 -10 9 -10 6 0 13 5 16 10 3 6 -1 10 -9 10 -9 0
-16 -4 -16 -10z"/>
<path d="M4120 2150 c0 -5 6 -10 14 -10 8 0 18 5 21 10 3 6 -3 10 -14 10 -12
0 -21 -4 -21 -10z"/>
<path d="M4085 2080 l-40 -6 28 -12 c38 -16 67 -15 67 2 0 20 -9 23 -55 16z"/>
<path d="M4182 2065 c-7 -8 -9 -15 -4 -15 5 0 15 7 22 15 16 19 -1 19 -18 0z"/>
<path d="M4061 2031 c-17 -11 -4 -34 16 -27 8 3 11 1 8 -4 -3 -6 4 -10 16 -10
18 0 20 3 11 12 -8 8 -9 15 -1 25 9 10 6 13 -12 13 -13 0 -30 -4 -38 -9z"/>
<path d="M4170 2000 c0 -13 5 -20 13 -17 6 2 12 10 12 17 0 7 -6 15 -12 18 -8
2 -13 -5 -13 -18z"/>
<path d="M4040 1949 c0 -5 5 -7 10 -4 6 3 10 8 10 11 0 2 -4 4 -10 4 -5 0 -10
-5 -10 -11z"/>
<path d="M3980 1870 c0 -5 5 -10 10 -10 6 0 10 5 10 10 0 6 -4 10 -10 10 -5 0
-10 -4 -10 -10z"/>
</g>
</svg>
